<svg xmlns="http://www.w3.org/2000/svg" version="1.1" xmlns:xlink="http://www.w3.org/1999/xlink" xmlns:svgjs="http://svgjs.dev/svgjs" width="1000" height="1000" viewBox="0 0 1000 1000"><rect width="1000" height="1000" fill="#ffffff"></rect><g transform="matrix(0.7,0,0,0.7,149.5757694995765,434.46292415878077)"><svg viewBox="0 0 396 74" data-background-color="#ffffff" preserveAspectRatio="xMidYMid meet" height="186" width="1000" xmlns="http://www.w3.org/2000/svg" xmlns:xlink="http://www.w3.org/1999/xlink"><g id="tight-bounds" transform="matrix(1,0,0,1,0.2399932545253023,0.248414840631483)"><svg viewBox="0 0 395.52 73.50317031873706" height="73.50317031873706" width="395.52"><g><svg viewBox="0 0 557.9155054289674 103.68264163382298" height="73.50317031873706" width="395.52"><g><rect width="9.303689177138631" height="103.68264163382298" x="128.73660898183243" y="0" fill="#000000" opacity="1" stroke-width="0" stroke="transparent" fill-opacity="1" class="rect-o-0" data-fill-palette-color="primary" rx="1%" id="o-0" data-palette-color="#152232"></rect></g><g transform="matrix(1,0,0,1,162.39550542896748,0.25791701898960184)"><svg viewBox="0 0 395.52 103.16680759584378" height="103.16680759584378" width="395.52"><g id="textblocktransform"><svg viewBox="0 0 395.52 103.16680759584378" height="103.16680759584378" width="395.52" id="textblock"><g><svg viewBox="0 0 395.52 103.16680759584378" height="103.16680759584378" width="395.52"><g transform="matrix(1,0,0,1,0,0)"><svg width="395.52" viewBox="1.75 -35.70000076293945 139.5399932861328 36.400001525878906" height="103.16680759584378" data-palette-color="#152232"><path d="M19.7 0.7L19.7 0.7Q14.38 0.7 10.33-1.56 6.28-3.83 4.01-7.91 1.75-12 1.75-17.5L1.75-17.5Q1.75-23 4.09-27.09 6.43-31.18 10.53-33.44 14.63-35.7 19.9-35.7L19.9-35.7Q22.68-35.7 24.98-35.11 27.28-34.52 28.95-33.65L28.95-33.65 28.25-27.55Q26.35-28.43 24.34-28.99 22.33-29.55 19.85-29.55L19.85-29.55Q16.18-29.55 13.71-28 11.25-26.45 10-23.73 8.75-21 8.75-17.5L8.75-17.5Q8.75-14 9.98-11.28 11.2-8.55 13.64-7 16.07-5.45 19.7-5.45L19.7-5.45Q22.23-5.45 24.23-6 26.23-6.55 28.25-7.45L28.25-7.45 28.95-1.35Q26.98-0.43 24.61 0.14 22.25 0.7 19.7 0.7ZM39.3 0L32.65 0 37.5-35 42.75-35 51.3-19.05 59.8-35 65.05-35 69.9 0 63.25 0 59.9-26.3 61.65-25.95 51.3-7.35 40.9-25.9 42.65-26.25 39.3 0ZM80.95 0L74.3 0 79.15-35 84.4-35 92.95-19.05 101.45-35 106.7-35 111.55 0 104.9 0 101.55-26.3 103.3-25.95 92.95-7.35 82.55-25.9 84.3-26.25 80.95 0ZM127.74 0.7L127.74 0.7Q125.62 0.7 123.37 0.29 121.12-0.13 119.19-0.71 117.27-1.3 116.14-1.85L116.14-1.85 116.89-8.65Q118.64-7.8 120.54-7.08 122.44-6.35 124.44-5.9 126.44-5.45 128.49-5.45L128.49-5.45Q131.04-5.45 132.59-6.45 134.14-7.45 134.14-9.5L134.14-9.5Q134.14-11.08 133.27-12.04 132.39-13 130.59-13.76 128.79-14.53 125.99-15.5L125.99-15.5Q123.19-16.48 120.97-17.71 118.74-18.95 117.44-20.85 116.14-22.75 116.14-25.7L116.14-25.7Q116.14-28.6 117.57-30.86 118.99-33.13 121.83-34.41 124.67-35.7 128.89-35.7L128.89-35.7Q132.09-35.7 134.99-34.99 137.89-34.27 139.94-33.45L139.94-33.45 139.29-26.9Q136.34-28.23 133.76-28.91 131.17-29.6 128.49-29.6L128.49-29.6Q125.69-29.6 124.17-28.68 122.64-27.75 122.64-25.9L122.64-25.9Q122.64-24.43 123.49-23.53 124.34-22.63 125.92-21.99 127.49-21.35 129.69-20.65L129.69-20.65Q133.49-19.45 136.08-18.01 138.67-16.57 139.98-14.54 141.29-12.5 141.29-9.5L141.29-9.5Q141.29-8 140.82-6.24 140.34-4.48 138.94-2.9 137.54-1.33 134.86-0.31 132.17 0.7 127.74 0.7Z" opacity="1" transform="matrix(1,0,0,1,0,0)" fill="#000000" class="wordmark-text-0" data-fill-palette-color="primary" id="text-0"></path></svg></g></svg></g></svg></g></svg></g><g transform="matrix(1,0,0,1,0,0.25791701898960184)"><svg viewBox="0 0 104.38140171183602 103.16680759584378" height="103.16680759584378" width="104.38140171183602"><g><svg xmlns="http://www.w3.org/2000/svg" xmlns:xlink="http://www.w3.org/1999/xlink" version="1.1" x="0" y="0" viewBox="2.000615119934082 2 60.70638656616211 60" style="enable-background:new 0 0 64 64;" xml:space="preserve" height="103.16680759584378" width="104.38140171183602" class="icon-icon-0" data-fill-palette-color="accent" id="icon-0"><path d="M3 49h1.074l0.929 12.077C5.043 61.598 5.478 62 6 62h26c0.522 0 0.957-0.402 0.997-0.923L33.926 49H35c0.279 0 0.546-0.117 0.736-0.323 0.189-0.206 0.284-0.481 0.261-0.76l-0.731-8.83c-0.176-4.061-3.071-7.513-7.039-8.395l-2.457-0.546-0.998-2.995C27.325 25.339 29 22.364 29 19c0-0.329-0.023-0.664-0.058-1H30h2v-2h-1v-1c0-5.081-3.255-9.617-8-11.298V3c0-0.552-0.448-1-1-1h-6c-0.552 0-1 0.448-1 1v0.702C10.255 5.383 7 9.919 7 15v1H6v2h2 1.058C9.023 18.336 9 18.671 9 19c0 3.364 1.675 6.339 4.229 8.152l-0.998 2.995-2.457 0.546c-3.968 0.881-6.863 4.333-7.037 8.355l-0.733 8.869c-0.023 0.279 0.072 0.554 0.261 0.76C2.454 48.883 2.721 49 3 49zM6.08 49H9v8 3H6.926L6.08 49zM27 60H11v-2h16V60zM31.074 60H29v-3-8h2.92L31.074 60zM24.789 36.817l-4.445-0.635 3.81-3.175L24.789 36.817zM9 15c0-3.992 2.41-7.586 6-9.157V13h2V4.425 4h4v0.425V13h2V5.843c3.59 1.571 6 5.165 6 9.157v1h-1.23H10.23 9V15zM11 19c0-0.328 0.022-0.662 0.066-1h15.867C26.978 18.338 27 18.672 27 19c0 2.933-1.592 5.496-3.953 6.889-2.465 1.451-5.63 1.451-8.095 0C12.592 24.496 11 21.933 11 19zM19 29c1.422 0 2.773-0.303 3.999-0.84l0.836 2.509L19 34.698l-4.835-4.029 0.836-2.509C16.227 28.697 17.578 29 19 29zM13.846 33.007l3.81 3.175-4.445 0.635L13.846 33.007zM4.732 39.174c0.137-3.159 2.389-5.843 5.475-6.529l1.736-0.386-0.929 5.576c-0.052 0.314 0.048 0.635 0.271 0.863 0.223 0.228 0.539 0.335 0.857 0.291L19 38.01l6.858 0.979c0.316 0.044 0.634-0.063 0.857-0.291 0.223-0.228 0.323-0.549 0.271-0.863l-0.929-5.576 1.736 0.386c3.086 0.686 5.337 3.371 5.477 6.568L33.914 47H29v-5h-2v14H11V42H9v5H4.086L4.732 39.174z" fill="#000000" data-fill-palette-color="accent"></path><rect x="18" y="40" width="2" height="2" fill="#000000" data-fill-palette-color="accent"></rect><rect x="18" y="44" width="2" height="2" fill="#000000" data-fill-palette-color="accent"></rect><rect x="18" y="48" width="2" height="2" fill="#000000" data-fill-palette-color="accent"></rect><path d="M59.46 23.874l1.833 1.833 1.414-1.414L60 21.586V17c0-0.552-0.448-1-1-1h-4.586L40.707 2.293l-1.414 1.414L42 6.414V15c-0.315 0-0.611 0.148-0.8 0.4L38.5 19H38c-0.552 0-1 0.448-1 1v5c0 0.552 0.448 1 1 1h10c0.552 0 1-0.448 1-1v-5c0-0.552-0.448-1-1-1h-0.5l-2.7-3.6C44.611 15.148 44.315 15 44 15V8.414l8.126 8.126C52.052 16.68 52 16.831 52 17v6c0 0.552 0.448 1 1 1v25h-2c-0.552 0-1 0.448-1 1v4c0 0.552 0.448 1 1 1h10c0.552 0 1-0.448 1-1v-4c0-0.552-0.448-1-1-1h-2V24C59.169 24 59.32 23.948 59.46 23.874zM47 24h-8v-3h8V24zM45 19h-4l1.5-2h1L45 19zM58 18v4h-4v-4H58zM55 42.697v-2.395l2 3v2.395L55 42.697zM55 34.303l2 3v2.395l-2-3V34.303zM57 33.697l-2-3v-2.395l2 3V33.697zM55 46.303L56.798 49H55V46.303zM60 53h-8v-2h2 4 2V53zM57 27.697l-2-3V24h2V27.697z" fill="#000000" data-fill-palette-color="accent"></path><path d="M48 54V32c0-0.552-0.448-1-1-1h-8c-0.552 0-1 0.448-1 1v22c0 0.552 0.448 1 1 1h8C47.552 55 48 54.552 48 54zM46 53h-6V33h6V53z" fill="#000000" data-fill-palette-color="accent"></path><rect x="42" y="36" width="2" height="2" fill="#000000" data-fill-palette-color="accent"></rect><rect x="42" y="40" width="2" height="2" fill="#000000" data-fill-palette-color="accent"></rect><rect x="42" y="44" width="2" height="2" fill="#000000" data-fill-palette-color="accent"></rect><rect x="42" y="48" width="2" height="2" fill="#000000" data-fill-palette-color="accent"></rect></svg></g></svg></g></svg></g><defs></defs></svg><rect width="395.52" height="73.50317031873706" fill="none" stroke="none" visibility="hidden"></rect></g></svg></g></svg>